<?xml version="1.0" encoding="utf-8"?>
<svg xmlns="http://www.w3.org/2000/svg" xmlns:xlink="http://www.w3.org/1999/xlink" style="margin: auto; background: none; display: block; shape-rendering: auto;" width="207px" height="207px" viewBox="0 0 100 100" preserveAspectRatio="xMidYMid">
<g transform="rotate(0 50 50)">
  <rect x="47" y="24" rx="3" ry="6" width="6" height="12" fill="#497083">
    <animate attributeName="opacity" values="1;0" keyTimes="0;1" dur="1.0638297872340425s" begin="-0.9751773049645389s" repeatCount="indefinite"></animate>
  </rect>
</g><g transform="rotate(30 50 50)">
  <rect x="47" y="24" rx="3" ry="6" width="6" height="12" fill="#497083">
    <animate attributeName="opacity" values="1;0" keyTimes="0;1" dur="1.0638297872340425s" begin="-0.8865248226950354s" repeatCount="indefinite"></animate>
  </rect>
</g><g transform="rotate(60 50 50)">
  <rect x="47" y="24" rx="3" ry="6" width="6" height="12" fill="#497083">
    <animate attributeName="opacity" values="1;0" keyTimes="0;1" dur="1.0638297872340425s" begin="-0.7978723404255318s" repeatCount="indefinite"></animate>
  </rect>
</g><g transform="rotate(90 50 50)">
  <rect x="47" y="24" rx="3" ry="6" width="6" height="12" fill="#497083">
    <animate attributeName="opacity" values="1;0" keyTimes="0;1" dur="1.0638297872340425s" begin="-0.7092198581560283s" repeatCount="indefinite"></animate>
  </rect>
</g><g transform="rotate(120 50 50)">
  <rect x="47" y="24" rx="3" ry="6" width="6" height="12" fill="#497083">
    <animate attributeName="opacity" values="1;0" keyTimes="0;1" dur="1.0638297872340425s" begin="-0.6205673758865248s" repeatCount="indefinite"></animate>
  </rect>
</g><g transform="rotate(150 50 50)">
  <rect x="47" y="24" rx="3" ry="6" width="6" height="12" fill="#497083">
    <animate attributeName="opacity" values="1;0" keyTimes="0;1" dur="1.0638297872340425s" begin="-0.5319148936170213s" repeatCount="indefinite"></animate>
  </rect>
</g><g transform="rotate(180 50 50)">
  <rect x="47" y="24" rx="3" ry="6" width="6" height="12" fill="#497083">
    <animate attributeName="opacity" values="1;0" keyTimes="0;1" dur="1.0638297872340425s" begin="-0.4432624113475177s" repeatCount="indefinite"></animate>
  </rect>
</g><g transform="rotate(210 50 50)">
  <rect x="47" y="24" rx="3" ry="6" width="6" height="12" fill="#497083">
    <animate attributeName="opacity" values="1;0" keyTimes="0;1" dur="1.0638297872340425s" begin="-0.35460992907801414s" repeatCount="indefinite"></animate>
  </rect>
</g><g transform="rotate(240 50 50)">
  <rect x="47" y="24" rx="3" ry="6" width="6" height="12" fill="#497083">
    <animate attributeName="opacity" values="1;0" keyTimes="0;1" dur="1.0638297872340425s" begin="-0.26595744680851063s" repeatCount="indefinite"></animate>
  </rect>
</g><g transform="rotate(270 50 50)">
  <rect x="47" y="24" rx="3" ry="6" width="6" height="12" fill="#497083">
    <animate attributeName="opacity" values="1;0" keyTimes="0;1" dur="1.0638297872340425s" begin="-0.17730496453900707s" repeatCount="indefinite"></animate>
  </rect>
</g><g transform="rotate(300 50 50)">
  <rect x="47" y="24" rx="3" ry="6" width="6" height="12" fill="#497083">
    <animate attributeName="opacity" values="1;0" keyTimes="0;1" dur="1.0638297872340425s" begin="-0.08865248226950354s" repeatCount="indefinite"></animate>
  </rect>
</g><g transform="rotate(330 50 50)">
  <rect x="47" y="24" rx="3" ry="6" width="6" height="12" fill="#497083">
    <animate attributeName="opacity" values="1;0" keyTimes="0;1" dur="1.0638297872340425s" begin="0s" repeatCount="indefinite"></animate>
  </rect>
</g>
<!-- [ldio] generated by https://loading.io/ --></svg>